<svg width="17" height="20" viewBox="0 0 17 20" fill="none" xmlns="http://www.w3.org/2000/svg">
<mask id="path-1-inside-1_105_176" fill="white">
<path fill-rule="evenodd" clip-rule="evenodd" d="M7.19721 0.435586C4.07456 3.42992 3.2962 8.28821 5.59394 12.2325C7.89167 16.1767 12.5262 17.9378 16.704 16.7549C16.1518 17.2844 15.5262 17.7557 14.8313 18.1533C10.2075 20.799 4.26699 19.1809 1.56288 14.539C-1.14123 9.8972 0.415021 3.98945 5.03886 1.34371C5.73373 0.94611 6.45833 0.644805 7.19721 0.435586Z"/>
</mask>
<path d="M7.19721 0.435586L7.89554 1.15391L6.91869 -0.522942L7.19721 0.435586ZM16.704 16.7549L17.4023 17.4732L16.4255 15.7963L16.704 16.7549ZM6.46189 11.7358C4.39806 8.1931 5.09966 3.8349 7.89554 1.15391L6.49889 -0.282737C3.04945 3.02495 2.19433 8.38333 4.72598 12.7291L6.46189 11.7358ZM16.4255 15.7963C12.6848 16.8555 8.52572 15.2786 6.46189 11.7358L4.72598 12.7291C7.25762 17.0749 12.3675 19.0202 16.9825 17.7134L16.4255 15.7963ZM16.0057 16.0365C15.5117 16.5102 14.9515 16.9324 14.3279 17.2892L15.3347 19.0174C16.1009 18.5789 16.7918 18.0586 17.4023 17.4732L16.0057 16.0365ZM14.3279 17.2892C10.1903 19.6567 4.86092 18.2138 2.43083 14.0424L0.694921 15.0357C3.67305 20.1479 10.2246 21.9413 15.3347 19.0174L14.3279 17.2892ZM2.43083 14.0424C0.000747708 9.87094 1.40458 4.57533 5.54223 2.20778L4.5355 0.479637C-0.574538 3.40357 -2.28321 9.92345 0.694921 15.0357L2.43083 14.0424ZM5.54223 2.20778C6.16575 1.851 6.81478 1.58127 7.47574 1.39411L6.91869 -0.522942C6.10188 -0.29166 5.30171 0.0412145 4.5355 0.479637L5.54223 2.20778Z" fill="#0C0B0B" fill-opacity="0.5" mask="url(#path-1-inside-1_105_176)"/>
</svg>
