<svg width="25" height="28" viewBox="0 0 25 28" fill="none" xmlns="http://www.w3.org/2000/svg">
<g filter="url(#filter0_d_105_52)">
<mask id="path-1-inside-1_105_52" fill="white">
<path fill-rule="evenodd" clip-rule="evenodd" d="M10.1972 4.43558C7.07457 7.42992 6.29621 12.2882 8.59395 16.2325C10.8917 20.1767 15.5262 21.9378 19.704 20.7549C19.1518 21.2844 18.5262 21.7557 17.8313 22.1533C13.2075 24.799 7.26699 23.1809 4.56288 18.539C1.85878 13.8972 3.41503 7.98945 8.03887 5.34371C8.73374 4.94611 9.45834 4.6448 10.1972 4.43558Z"/>
</mask>
<path d="M10.1972 4.43558L10.8956 5.15391L9.9187 3.47705L10.1972 4.43558ZM19.704 20.7549L20.4023 21.4732L19.4255 19.7963L19.704 20.7549ZM9.4619 15.7358C7.39807 12.1931 8.09967 7.83489 10.8956 5.15391L9.49891 3.71726C6.04947 7.02495 5.19434 12.3833 7.72599 16.7291L9.4619 15.7358ZM19.4255 19.7963C15.6848 20.8555 11.5257 19.2786 9.4619 15.7358L7.72599 16.7291C10.2576 21.0749 15.3675 23.0202 19.9825 21.7134L19.4255 19.7963ZM19.0057 20.0365C18.5117 20.5102 17.9515 20.9324 17.3279 21.2892L18.3347 23.0174C19.1009 22.5789 19.7918 22.0586 20.4023 21.4732L19.0057 20.0365ZM17.3279 21.2892C13.1903 23.6567 7.86093 22.2138 5.43084 18.0424L3.69493 19.0357C6.67306 24.1479 13.2246 25.9413 18.3347 23.0174L17.3279 21.2892ZM5.43084 18.0424C3.00076 13.8709 4.40459 8.57533 8.54224 6.20778L7.5355 4.47964C2.42547 7.40357 0.716798 13.9235 3.69493 19.0357L5.43084 18.0424ZM8.54224 6.20778C9.16576 5.851 9.81479 5.58127 10.4758 5.39411L9.9187 3.47705C9.1019 3.70834 8.30172 4.04121 7.5355 4.47964L8.54224 6.20778Z" fill="#969696" fill-opacity="0.71" mask="url(#path-1-inside-1_105_52)"/>
</g>
<defs>
<filter id="filter0_d_105_52" x="0.234718" y="0.435577" width="24.4693" height="26.9888" filterUnits="userSpaceOnUse" color-interpolation-filters="sRGB">
<feFlood flood-opacity="0" result="BackgroundImageFix"/>
<feColorMatrix in="SourceAlpha" type="matrix" values="0 0 0 0 0 0 0 0 0 0 0 0 0 0 0 0 0 0 127 0" result="hardAlpha"/>
<feOffset dx="1"/>
<feGaussianBlur stdDeviation="2"/>
<feComposite in2="hardAlpha" operator="out"/>
<feColorMatrix type="matrix" values="0 0 0 0 0.845833 0 0 0 0 0.81059 0 0 0 0 0.81059 0 0 0 0.4 0"/>
<feBlend mode="normal" in2="BackgroundImageFix" result="effect1_dropShadow_105_52"/>
<feBlend mode="normal" in="SourceGraphic" in2="effect1_dropShadow_105_52" result="shape"/>
</filter>
</defs>
</svg>
